<svg class="svg-icon" style="width: 1em; height: 1em;vertical-align: middle;fill: currentColor;overflow: hidden;" viewBox="0 0 1024 1024" version="1.1" xmlns="http://www.w3.org/2000/svg"><path d="M384 896v42.666667H298.666667v-42.666667a85.333333 85.333333 0 0 1-85.333334-85.333333V170.666667a85.333333 85.333333 0 0 1 85.333334-85.333334h426.666666a85.333333 85.333333 0 0 1 85.333334 85.333334v640a85.333333 85.333333 0 0 1-85.333334 85.333333v42.666667h-85.333333v-42.666667H384M298.666667 170.666667v213.333333h426.666666V170.666667H298.666667m0 640h426.666666v-341.333334H298.666667v341.333334m42.666666-298.666667h85.333334v128H341.333333v-128m0-256h85.333334v85.333333H341.333333V256z" fill="#fff" /></svg>